<svg aria-hidden="true" width="266" height="96" viewBox="0 0 266 96" xmlns="http://www.w3.org/2000/svg" xmlns:xlink="http://www.w3.org/1999/xlink"><g fill="none" fill-rule="evenodd"><path d="M85.876 65.012c3.634-20.194-9.714-39.495-29.815-43.111-4.75 26.416-7.608 42.298-13.155 73.129 20.102 3.616 39.338-9.825 42.97-30.018M56.04 22.027L42.87 95.243" fill="#97BBD9"></path><path d="M49.253 60.496l.332-1.868-22.788-4.34s-3.677-.558-7.144-1.038c-3.178-.44-5.176-.593-5.272-.257-.095.339 1.525.64 4.724 1.525 3.143.869 7.364 1.72 7.364 1.72l22.784 4.258M47.072 82.256l.323-1.845-18.408-3.362s-.515-.09-4.569-.656c-3.154-.442-6.034-.862-5.846-.466.284.598 1.911.797 5.218 1.623 3.429.857 9.105 2.082 9.105 2.082l14.177 2.624M52.646 40.76l.41-2.058-15.47-2.782s-5.646-.89-8.809-1.29c-3.16-.402-4.65-.702-5.2-.328-.498.34 1.542.73 4.746 1.507 3.145.766 8.152 1.908 8.152 1.908l16.17 3.044" fill="#97BBD9"></path><path d="M49.595 23.509c-.399-.333-5.177 1.304-6.726 2.144-11.264 6.108-17.973 16.332-19.829 28.08-2.924 18.518 6.457 30.206 10.458 34.751 1.673 1.901 2.58 2.793 2.805 2.606.532-.44-1.725-3.055-2.71-4.698-4.777-7.966-9.175-18.798-7.316-31.816 1.816-12.719 8.368-21.949 20.264-29.42.479-.3 3.253-1.482 3.054-1.647" fill="#97BBD9"></path><path d="M50.059 93.447c.637.782 13.274-2.962 21.485-16.626 7.628-12.692 6.93-22.244 5.981-22.244-.735 0-.836 9.383-7.906 20.527-9.479 14.94-20.195 17.559-19.56 18.343" fill="#C9DAE8"></path><path d="M49.427 58.628l-.332 1.868 19.752 3.83s5.859 1.058 9.135 1.507c3.231.44 5.206.873 5.264.4.055-.476-1.422-.78-4.691-1.662-3.252-.879-9.338-2.02-9.338-2.02l-19.79-3.923" fill="#C9DAE8"></path><path fill="#00458F" d="M17.639 40.63c-5.918 1.966-13.637 5.644-9.307 13.236 7.057 12.374 29.36 19.156 42.136 21.714 14.567 2.917 28.306 4.073 38.601 5.018 1.135.105 3.025.18 3.165.432.197.353-1.78.524-2.896.7-12.332 1.94-33.968.345-43.153-1.414-5.533-1.06-30.28-6.179-41.625-20.716-11.264-14.434 5.587-19.229 13.398-19.53.526-.02.296.355-.32.56"></path><path fill="#000105" d="M67.4 14.827L63.27 37.32h6.84l4.039-22.493H67.4"></path><path d="M97.152.676c-1.074-.488-1.617-.53-2.837-.604-2.8.05-5.059 1.4-6.854 3.452-1.96 2.314-2.992 5.09-3.729 8.564-.047.224-.5 2.517-.543 2.735l-4.295.001-.353 1.885h4.31c-.809 4.196-2.239 12.16-2.811 15.251-1.34 7.243-1.88 11.792-6.798 14.1l-.368 2.05c2.903-.5 5.55-2.425 7.205-4.98 2.684-4.145 4.032-8.738 5.609-17.622.531-2.996 1.134-6.44 1.573-8.807l5.121.008c-.017-.157 3.37 20.616 3.37 20.616h6.998l6.422-14.15.11.006 2.048 14.144h7l10.895-22.504h-7.263l-6.057 14.335h-.13l-1.761-14.335h-7l-6.088 14.335h-.129l-1.533-14.335-11.64.003.848-4.715c.529-2.842 1.951-7.24 4.573-7.32 1.363-.042 2.67.709 3.47 1.528l.637-3.641M140.531 23.635l-3.122-4.103h-.024v4.103h-1.983v-8.912h1.983v3.626h.035l3.004-3.626h2.541l-3.621 4.104 3.835 4.808h-2.648M144.568 23.635h2.078v-8.917h-2.078zM149.116 14.718h5.319v1.871h-3.241v1.622h2.588v1.87h-2.588v1.683h3.406v1.87h-5.484v-8.916M156.572 14.718h2.078v7.046h3.467v1.87h-5.545v-8.916" fill="#000"></path><path fill="#989598" d="M168.332 23.635h.804v-8.93h-.804zM172.137 14.706h.78l4.179 6.427c.28.444.676 1.206.676 1.206h.023s-.07-.736-.07-1.206v-6.427h.803v8.929h-.78l-4.179-6.427c-.279-.445-.676-1.208-.676-1.208h-.024s.071.738.071 1.208v6.427h-.803v-8.93M180.992 21.971s.85.978 2.142.978c.895 0 1.63-.584 1.63-1.55 0-2.248-4.087-1.676-4.087-4.445 0-1.283 1.036-2.401 2.55-2.401 1.42 0 2.188.864 2.188.864l-.395.736s-.723-.761-1.793-.761c-1.048 0-1.724.749-1.724 1.537 0 2.12 4.086 1.51 4.086 4.445 0 1.334-.942 2.414-2.48 2.414-1.675 0-2.595-1.143-2.595-1.143l.478-.674M189.219 15.493h-2.945v-.787h6.682v.787h-2.933v8.142h-.804v-8.142M194.396 23.635h.804v-8.93h-.804zM199.528 15.493h-2.945v-.787h6.682v.787h-2.933v8.142h-.804v-8.142M204.461 14.706h.815v5.804c0 1.537.908 2.464 2.316 2.464 1.409 0 2.33-.927 2.33-2.49v-5.778h.802v5.818c0 1.98-1.268 3.264-3.119 3.264-1.863 0-3.144-1.284-3.144-3.264v-5.818M214.83 15.493h-2.945v-.787h6.682v.787h-2.935v8.142h-.802v-8.142M219.81 14.706h4.61v.787h-3.807v3.251h3.107v.788h-3.107v3.315h4.017v.788h-4.82v-8.93M229.56 14.706h4.309v.787h-3.504v3.353h3.002v.787h-3.002v4.002h-.805v-8.93M239.151 22.974c1.84 0 3.329-1.676 3.329-3.861 0-2.134-1.49-3.747-3.329-3.747-1.852 0-3.33 1.613-3.33 3.747 0 2.185 1.478 3.861 3.33 3.861zm0-8.421c2.317 0 4.167 1.994 4.167 4.56 0 2.617-1.85 4.675-4.167 4.675-2.318 0-4.168-2.058-4.168-4.675 0-2.566 1.85-4.56 4.168-4.56zM247.552 19.088c.99 0 1.617-.699 1.617-1.817 0-.736-.268-1.282-.745-1.562-.244-.14-.534-.216-1.163-.216h-1.654v3.595h1.945zm-2.748-4.382h2.421c.839 0 1.212.088 1.538.24.768.37 1.234 1.22 1.234 2.3 0 1.206-.63 2.133-1.549 2.413v.025s.08.115.21.356l1.78 3.595h-.919l-1.85-3.76h-2.062v3.76h-.803v-8.93zM138.184 29.135h-2.915v-.787h6.615v.787h-2.904v8.142h-.796v-8.142M143.332 28.348h.796v4.065h4.701v-4.065h.796v8.93h-.796V33.2h-4.701v4.077h-.796v-8.93M152.165 28.348h4.565v.787h-3.77v3.251h3.078v.788h-3.077v3.315h3.976v.788h-4.772v-8.93M166.461 29.656s-.126.762-.265 1.333l-1.543 6.288h-.958l-2.097-8.93h.829l1.569 6.936c.103.457.184.952.184.952h.023c.011 0 .068-.495.184-.952l1.706-6.935h.76l1.707 6.935c.115.457.173.952.184.952h.023s.08-.495.184-.952l1.626-6.935h.83l-2.156 8.93h-.957l-1.545-6.289c-.137-.57-.265-1.333-.265-1.333h-.023M176.677 36.616c1.821 0 3.296-1.676 3.296-3.861 0-2.134-1.475-3.748-3.296-3.748-1.833 0-3.296 1.614-3.296 3.748 0 2.185 1.463 3.861 3.296 3.861zm0-8.421c2.294 0 4.126 1.994 4.126 4.56 0 2.616-1.832 4.674-4.126 4.674-2.294 0-4.126-2.058-4.126-4.674 0-2.566 1.832-4.56 4.126-4.56zM185.452 32.73c.98 0 1.603-.699 1.603-1.817 0-.736-.266-1.282-.738-1.562-.242-.14-.53-.216-1.153-.216h-1.636v3.595h1.924zm-2.72-4.382h2.398c.83 0 1.198.088 1.522.241.76.368 1.221 1.219 1.221 2.299 0 1.206-.622 2.133-1.533 2.413v.025s.08.115.208.356l1.764 3.595h-.911l-1.833-3.76h-2.04v3.76h-.796v-8.93zM190.323 28.348h.795v8.14h3.757v.79h-4.552v-8.93M198.917 36.489c1.993 0 3.32-1.295 3.32-3.684 0-2.374-1.338-3.67-3.32-3.67h-1.74v7.354h1.74zm-2.536-8.141h2.617c2.431 0 4.069 1.638 4.069 4.457 0 2.846-1.638 4.472-4.07 4.472h-2.616v-8.93zM208.578 28.348h4.563v.787h-3.769v3.251h3.077v.788h-3.077v3.315h3.977v.788h-4.771v-8.93M218.761 28.195c1.937 0 2.917 1.156 2.917 1.156l-.427.648s-.945-.992-2.466-.992c-1.902 0-3.262 1.626-3.262 3.735 0 2.134 1.36 3.874 3.285 3.874 1.637 0 2.627-1.195 2.627-1.195l.461.623s-1.106 1.385-3.1 1.385c-2.397 0-4.103-2.07-4.103-4.674 0-2.592 1.752-4.56 4.068-4.56M226.939 36.616c1.821 0 3.297-1.676 3.297-3.861 0-2.134-1.476-3.748-3.297-3.748-1.833 0-3.297 1.614-3.297 3.748 0 2.185 1.464 3.861 3.297 3.861zm0-8.421c2.294 0 4.125 1.994 4.125 4.56 0 2.616-1.831 4.674-4.125 4.674s-4.127-2.058-4.127-4.674c0-2.566 1.833-4.56 4.127-4.56zM232.914 28.348h.771l4.139 6.427c.277.444.67 1.206.67 1.206h.022s-.07-.736-.07-1.206v-6.427h.796v8.93h-.772l-4.138-6.428c-.278-.445-.67-1.207-.67-1.207h-.022s.07.737.07 1.207v6.427h-.796v-8.93M244.917 36.616c1.82 0 3.296-1.676 3.296-3.861 0-2.134-1.475-3.748-3.296-3.748-1.832 0-3.296 1.614-3.296 3.748 0 2.185 1.464 3.861 3.296 3.861zm0-8.421c2.293 0 4.126 1.994 4.126 4.56 0 2.616-1.833 4.674-4.126 4.674s-4.126-2.058-4.126-4.674c0-2.566 1.833-4.56 4.126-4.56zM251.065 28.348h.83l2.121 5.246c.184.457.392 1.091.392 1.091h.022s.22-.634.405-1.091l2.12-5.246h.819l.645 8.93h-.795l-.45-6.251c-.034-.483-.023-1.244-.023-1.244h-.023s-.242.788-.427 1.244l-1.902 4.585h-.748l-1.902-4.585c-.184-.445-.438-1.27-.438-1.27h-.023s.011.787-.024 1.27l-.45 6.25h-.794l.645-8.93M262.353 33.44l-2.731-5.092h.91l1.717 3.239c.243.457.497 1.067.497 1.067h.022s.242-.598.496-1.067l1.717-3.24h.9l-2.721 5.094v3.836h-.807v-3.836"></path></g></svg>