<svg xmlns="http://www.w3.org/2000/svg" viewBox="0 0 590.3 103.92"><defs><style>.cls-1{fill:#125740;}.cls-2{fill:#b79257;}</style></defs><g id="Layer_2" data-name="Layer 2"><g id="Isolation_Mode" data-name="Isolation Mode"><path class="cls-1" d="M183.72,30.63V29.51h15.14v1.12h-.71a8.27,8.27,0,0,0-3.2.4,2.14,2.14,0,0,0-1,1.51,31,31,0,0,0-.26,5.22V54a41.38,41.38,0,0,0,.19,5.11,2.56,2.56,0,0,0,1,1.79,5.4,5.4,0,0,0,3,.59h1v1.12H183.72V61.49h1a5.73,5.73,0,0,0,2.94-.54,2.45,2.45,0,0,0,1-1.67A38.43,38.43,0,0,0,188.9,54V37.76a36.4,36.4,0,0,0-.22-5.1,2.2,2.2,0,0,0-1-1.59,7.71,7.71,0,0,0-3.27-.44Z"/><path class="cls-1" d="M229.91,52.87l-.24,9.74H201.54V61.49h1a5.68,5.68,0,0,0,2.94-.54,2.43,2.43,0,0,0,1-1.67,34.75,34.75,0,0,0,.23-5.28V37.76a32.9,32.9,0,0,0-.23-5.1,2.22,2.22,0,0,0-1-1.59,7.69,7.69,0,0,0-3.26-.44h-.74V29.51h15.9v1.12H216a8.27,8.27,0,0,0-3.2.4,2.14,2.14,0,0,0-1,1.51,31,31,0,0,0-.26,5.22V55.09a29.51,29.51,0,0,0,.2,4.5,2.07,2.07,0,0,0,1.06,1.4,8.85,8.85,0,0,0,3.72.5H219a14.15,14.15,0,0,0,4.53-.54,6.35,6.35,0,0,0,2.81-2.34,18.68,18.68,0,0,0,2.43-5.74Z"/><path class="cls-1" d="M260.11,52.87l-.24,9.74H231.74V61.49h1a5.68,5.68,0,0,0,2.94-.54,2.43,2.43,0,0,0,1.05-1.67,34.75,34.75,0,0,0,.23-5.28V37.76a32.9,32.9,0,0,0-.23-5.1,2.22,2.22,0,0,0-1-1.59,7.69,7.69,0,0,0-3.26-.44h-.74V29.51h15.9v1.12h-1.47a8.27,8.27,0,0,0-3.2.4,2.14,2.14,0,0,0-1,1.51,31,31,0,0,0-.26,5.22V55.09a29.51,29.51,0,0,0,.2,4.5A2.07,2.07,0,0,0,243,61a8.87,8.87,0,0,0,3.73.5h2.51a14.15,14.15,0,0,0,4.53-.54,6.35,6.35,0,0,0,2.81-2.34A18.68,18.68,0,0,0,259,52.87Z"/><path class="cls-1" d="M261.82,30.63V29.51H277v1.12h-.71a8.27,8.27,0,0,0-3.2.4,2.14,2.14,0,0,0-1,1.51,31,31,0,0,0-.26,5.22V54a41.38,41.38,0,0,0,.19,5.11,2.56,2.56,0,0,0,1,1.79,5.4,5.4,0,0,0,3,.59h1v1.12H261.82V61.49h1a5.73,5.73,0,0,0,2.94-.54,2.42,2.42,0,0,0,1-1.67A38.43,38.43,0,0,0,267,54V37.76a36.4,36.4,0,0,0-.22-5.1,2.17,2.17,0,0,0-1-1.59,7.71,7.71,0,0,0-3.27-.44Z"/><path class="cls-1" d="M300.81,50.41H288.23l-.85,2.1c-1.27,3-1.91,5-1.91,6a2.64,2.64,0,0,0,1,2.26,4.18,4.18,0,0,0,2.6.77v1.12h-9.84V61.49a5.31,5.31,0,0,0,3.27-1.55,18.92,18.92,0,0,0,2.59-5.09c.08-.24.47-1.19,1.17-2.83l9.62-23h1l11.06,26.3,1.51,3.46a4.74,4.74,0,0,0,1.38,1.85,5,5,0,0,0,2.6.84v1.12h-13V61.49a10,10,0,0,0,3.24-.35,1.38,1.38,0,0,0,.84-1.41,14.42,14.42,0,0,0-1.13-3.2Zm-.42-1.1L294.53,35.2,288.7,49.31Z"/><path class="cls-1" d="M338.28,56.9l12.06-27.39H360.5v1.12h-1.23a8.21,8.21,0,0,0-3.19.4,2.12,2.12,0,0,0-1,1.51,31.39,31.39,0,0,0-.25,5.22V54a41.38,41.38,0,0,0,.19,5.11,2.62,2.62,0,0,0,1,1.79,5.4,5.4,0,0,0,3,.59h1.47v1.12H344.68V61.49h1.17a5.6,5.6,0,0,0,2.91-.54,2.43,2.43,0,0,0,1.05-1.67,34.24,34.24,0,0,0,.24-5.28V32.93L336.94,62.61h-1.15L322.58,32.93V52.31a39.61,39.61,0,0,0,.24,5.42,4.27,4.27,0,0,0,1.52,2.53,5.94,5.94,0,0,0,3.56,1.23v1.12H316.06V61.49a6.06,6.06,0,0,0,3.46-1.16,4.22,4.22,0,0,0,1.62-2.55,34.69,34.69,0,0,0,.29-5.62V37.76a32.9,32.9,0,0,0-.23-5.1,2.2,2.2,0,0,0-1-1.59,7.6,7.6,0,0,0-3.25-.44h-.91V29.51h10.09Z"/><path class="cls-1" d="M383.71,38.49a12.45,12.45,0,0,1-1.29-5.19,8.78,8.78,0,0,1,1.6-5.07,12.62,12.62,0,0,1,4.09-3.77A10.12,10.12,0,0,1,393.26,23a7.55,7.55,0,0,1,5,1.65,5,5,0,0,1,2,3.94,5.66,5.66,0,0,1-1,3.18c-.64,1-1.31,1.47-2,1.47-.35,0-.52-.18-.52-.55a3.41,3.41,0,0,1,.29-.89,6,6,0,0,0,.46-2.26,3.36,3.36,0,0,0-1.41-2.8,5.36,5.36,0,0,0-3.38-1.08,8.55,8.55,0,0,0-6,2.63,8.08,8.08,0,0,0-2.76,6,7.19,7.19,0,0,0,.4,2.57,4.17,4.17,0,0,0,.73,1.36,1.29,1.29,0,0,0,.93.31q4,0,4,2.3a1.76,1.76,0,0,1-.41,1.09,1.5,1.5,0,0,1-1.22.52,4,4,0,0,1-2.27-1.18A4.46,4.46,0,0,0,383.22,40a4.67,4.67,0,0,0-3.43,1.79,6.16,6.16,0,0,0-1.62,4.26q0,4.78,4.76,9a17.14,17.14,0,0,0,11.85,4.26,19.5,19.5,0,0,0,11.49-3.34q4.77-3.35,4.78-8a7.25,7.25,0,0,0-2.36-5.38,8.74,8.74,0,0,0-6.36-2.28,9.77,9.77,0,0,0-5.78,1.78A5.26,5.26,0,0,0,394,46.64a3.79,3.79,0,0,0,.91,2.63,2.61,2.61,0,0,0,1.9,1c.74,0,1.12-.4,1.12-1.21l0-.34c0-.25,0-.42,0-.52a3.13,3.13,0,0,1,.69-2.08,2.2,2.2,0,0,1,1.75-.82,2.47,2.47,0,0,1,1.75.71,2.59,2.59,0,0,1,.74,2,4,4,0,0,1-1.24,3,4.41,4.41,0,0,1-3.2,1.21,5.68,5.68,0,0,1-5.68-5.71,8.86,8.86,0,0,1,2.95-6.43q3-2.9,10.73-2.89,7,0,10.13-1.92a6.29,6.29,0,0,0,3.15-5.77,5.26,5.26,0,0,0-1.4-3.77,4.7,4.7,0,0,0-3.56-1.48,3.29,3.29,0,0,0-1.59.3,1,1,0,0,0-.53.93,2.36,2.36,0,0,0,.51,1.15,3.21,3.21,0,0,1,.66,1.84,2.54,2.54,0,0,1-.81,1.86,2.77,2.77,0,0,1-2,.8,2.66,2.66,0,0,1-2.18-.91,3.37,3.37,0,0,1-.74-2.16,4.43,4.43,0,0,1,1.91-3.49A7.41,7.41,0,0,1,414.75,23a6.57,6.57,0,0,1,5.06,2.22,7.65,7.65,0,0,1,2,5.35A9.11,9.11,0,0,1,420.1,36a9.31,9.31,0,0,1-4.39,3.44,24.14,24.14,0,0,1-7.45,1.18,9.8,9.8,0,0,1,4.59,8.32A11.73,11.73,0,0,1,410,56.3a17.29,17.29,0,0,1-6.81,5.28,24.66,24.66,0,0,1-9.77,1.72,23.25,23.25,0,0,1-7.57-1,20.54,20.54,0,0,1-5.52-3,14.23,14.23,0,0,1-4.13-4.78,12.67,12.67,0,0,1-1.51-6.07A9.92,9.92,0,0,1,377,41.82,10.23,10.23,0,0,1,383.71,38.49Z"/><path class="cls-1" d="M460,55.78,474.39,23h12.15v1.34h-1.46a9.68,9.68,0,0,0-3.83.48,2.54,2.54,0,0,0-1.21,1.8,36.38,36.38,0,0,0-.31,6.25V52.3a50.52,50.52,0,0,0,.23,6.12,3.21,3.21,0,0,0,1.19,2.15,6.61,6.61,0,0,0,3.63.7h1.76v1.34H467.61V61.27H469a6.73,6.73,0,0,0,3.49-.65,2.94,2.94,0,0,0,1.26-2A42.86,42.86,0,0,0,474,52.3V27.1L458.35,62.61H457L441.18,27.1V50.28a47.5,47.5,0,0,0,.29,6.49,5,5,0,0,0,1.81,3,7.12,7.12,0,0,0,4.27,1.48v1.34H433.38V61.27a7.2,7.2,0,0,0,4.13-1.39,5,5,0,0,0,1.95-3.05,42.55,42.55,0,0,0,.35-6.72V32.88a39.53,39.53,0,0,0-.28-6.11,2.66,2.66,0,0,0-1.17-1.89,9.07,9.07,0,0,0-3.9-.53h-1.08V23h12.06Z"/><path class="cls-1" d="M510.46,50.41H497.89l-.85,2.1c-1.27,3-1.91,5-1.91,6a2.64,2.64,0,0,0,1,2.26,4.18,4.18,0,0,0,2.6.77v1.12h-9.84V61.49a5.31,5.31,0,0,0,3.27-1.55,19.22,19.22,0,0,0,2.59-5.09c.08-.24.47-1.19,1.17-2.83l9.62-23h.95l11.06,26.3,1.51,3.46a4.55,4.55,0,0,0,1.38,1.85,5,5,0,0,0,2.6.84v1.12h-13V61.49a9.88,9.88,0,0,0,3.23-.35,1.38,1.38,0,0,0,.85-1.41,14.42,14.42,0,0,0-1.13-3.2Zm-.41-1.1L504.19,35.2l-5.84,14.11Z"/><path class="cls-1" d="M561.1,62.61h-8.91q-2.37-1.65-7.26-8.69-1.56-2.23-3.24-4.31a17.58,17.58,0,0,0-2.32-2.51,3.49,3.49,0,0,0-2-.45h-1.32V54a44.41,44.41,0,0,0,.18,5.11,2.61,2.61,0,0,0,1,1.79,5.4,5.4,0,0,0,3,.59h1.59v1.12H526V61.49h1.08A5.73,5.73,0,0,0,530,61a2.45,2.45,0,0,0,1-1.67,38.43,38.43,0,0,0,.22-5.28V37.76a36.4,36.4,0,0,0-.22-5.1,2.2,2.2,0,0,0-1-1.59,7.75,7.75,0,0,0-3.27-.44h-.56V29.51l4.73-.25c3.16-.14,5.67-.22,7.52-.22a28.08,28.08,0,0,1,7.71.88A10.38,10.38,0,0,1,551,32.8a6.86,6.86,0,0,1,1.83,4.79,7.38,7.38,0,0,1-2.39,5.54,12,12,0,0,1-7,2.86q2.07,1,6.69,7.22A33.82,33.82,0,0,0,556,59.83a8.88,8.88,0,0,0,5.08,1.66Zm-25-17.09c1.22,0,2.48-.08,3.79-.14a14.5,14.5,0,0,0,3.39-.54,5.74,5.74,0,0,0,2.33-1.28,5.67,5.67,0,0,0,1.4-2.21A9.47,9.47,0,0,0,547.5,38a8.43,8.43,0,0,0-1.75-5.59c-1.16-1.4-3.7-2.1-7.6-2.1-.6,0-1.3,0-2.08.1Z"/><path class="cls-1" d="M575.26,48.14l6.52-11a9.21,9.21,0,0,0,1.61-3.8,2.6,2.6,0,0,0-.85-1.88,4.28,4.28,0,0,0-3-.86V29.51H590.3v1.12a6.24,6.24,0,0,0-3.62,1.67,27.13,27.13,0,0,0-3.53,4.92L575.73,49.6V54a33.69,33.69,0,0,0,.25,5.38,2.32,2.32,0,0,0,1.1,1.63,7.59,7.59,0,0,0,3.31.48v1.12H566.28V61.49h.54a5.73,5.73,0,0,0,2.94-.54,2.45,2.45,0,0,0,1-1.67A38.43,38.43,0,0,0,571,54V49.92l-8.26-13.55a33.24,33.24,0,0,0-3.34-4.9,4.45,4.45,0,0,0-3-.84V29.51h13.43v1.12c-2.51,0-3.76.57-3.76,1.71a7.24,7.24,0,0,0,1.24,2.73Z"/><path class="cls-1" d="M155.45,97.9a4.86,4.86,0,0,1-.77.89,5,5,0,0,1-1.06.72,6,6,0,0,1-1.29.49,6.28,6.28,0,0,1-1.46.17,6.52,6.52,0,0,1-2.56-.49,6.41,6.41,0,0,1-2.05-1.35,6.32,6.32,0,0,1-1.36-2.06,7.2,7.2,0,0,1,0-5.22,6.2,6.2,0,0,1,3.41-3.41,6.52,6.52,0,0,1,2.56-.49,6.14,6.14,0,0,1,2.31.46,4.64,4.64,0,0,1,2,1.5l-1.1.82a3.48,3.48,0,0,0-.53-.59,3.81,3.81,0,0,0-.76-.53,4.63,4.63,0,0,0-.92-.36,3.32,3.32,0,0,0-1-.14,5.08,5.08,0,0,0-2.14.43,5,5,0,0,0-1.6,1.18,5.16,5.16,0,0,0-1,1.7,6.12,6.12,0,0,0,0,4.08,5.21,5.21,0,0,0,1,1.71,4.84,4.84,0,0,0,1.6,1.17,5.08,5.08,0,0,0,2.14.44,5.23,5.23,0,0,0,1-.09,4.19,4.19,0,0,0,.95-.3,3.43,3.43,0,0,0,.87-.57,4.3,4.3,0,0,0,.76-.9Z"/><path class="cls-1" d="M159.32,87.47h1.26v5.37h6.76V87.47h1.26V99.86h-1.26V94h-6.76v5.87h-1.26Z"/><path class="cls-1" d="M173.5,99.86H172l5.39-12.39h1.22L184,99.86h-1.47L181.2,96.6h-6.34Zm1.83-4.41h5.38L178,88.94Z"/><path class="cls-1" d="M188.72,99.86h-1.26V87.47h3.82a4.84,4.84,0,0,1,3,.82,2.91,2.91,0,0,1,1.09,2.48,3.1,3.1,0,0,1-.81,2.18,3.53,3.53,0,0,1-2.35,1l3.57,5.88h-1.54l-3.4-5.76h-2.1Zm0-6.92H191a5,5,0,0,0,1.43-.17,2.53,2.53,0,0,0,.93-.47,1.59,1.59,0,0,0,.51-.68,2.28,2.28,0,0,0,0-1.68,1.68,1.68,0,0,0-.51-.69,2.38,2.38,0,0,0-.93-.46,5.34,5.34,0,0,0-1.43-.17h-2.24Z"/><path class="cls-1" d="M203.56,99.86H202.3V88.62h-4.15V87.47h9.56v1.15h-4.15Z"/><path class="cls-1" d="M212.64,98.7h6.64v1.16h-7.9V87.47h7.69v1.15h-6.43v4.22h6V94h-6Z"/><path class="cls-1" d="M224.77,99.86h-1.26V87.47h3.82a4.84,4.84,0,0,1,3,.82,2.91,2.91,0,0,1,1.09,2.48,3.1,3.1,0,0,1-.81,2.18,3.53,3.53,0,0,1-2.35,1l3.57,5.88h-1.54l-3.4-5.76h-2.1Zm0-6.92H227a5,5,0,0,0,1.43-.17,2.53,2.53,0,0,0,.93-.47,1.59,1.59,0,0,0,.51-.68,2.28,2.28,0,0,0,0-1.68,1.68,1.68,0,0,0-.51-.69,2.38,2.38,0,0,0-.93-.46,5.34,5.34,0,0,0-1.43-.17h-2.24Z"/><path class="cls-1" d="M236.9,98.7h6.63v1.16h-7.89V87.47h7.68v1.15H236.9v4.22h6V94h-6Z"/><path class="cls-1" d="M247.59,87.47h4.11a7.23,7.23,0,0,1,2.32.38,6.53,6.53,0,0,1,2.1,1.16A5.9,5.9,0,0,1,257.64,91a6.7,6.7,0,0,1,0,5.41,6,6,0,0,1-1.52,1.94,6.35,6.35,0,0,1-2.1,1.16,7.24,7.24,0,0,1-2.32.39h-4.11Zm1.26,11.23h2.45a6.33,6.33,0,0,0,2.46-.43,4.92,4.92,0,0,0,1.73-1.14,4.57,4.57,0,0,0,1-1.61,5.41,5.41,0,0,0,0-3.72,4.67,4.67,0,0,0-1-1.61,5.07,5.07,0,0,0-1.73-1.14,6.33,6.33,0,0,0-2.46-.43h-2.45Z"/><path class="cls-1" d="M273.51,99.86h-1.26V89L270,91l-.79-.94,3.15-2.59h1.12Z"/><path class="cls-1" d="M282.26,92.79l0,0a2.19,2.19,0,0,1,.8-.31,4.5,4.5,0,0,1,.92-.11,3.88,3.88,0,0,1,1.49.29,3.68,3.68,0,0,1,2,2,4.06,4.06,0,0,1,.29,1.54,3.91,3.91,0,0,1-.3,1.56,3.56,3.56,0,0,1-.84,1.21,3.89,3.89,0,0,1-1.28.79,4.77,4.77,0,0,1-3.22,0,3.84,3.84,0,0,1-1.27-.79,3.3,3.3,0,0,1-.84-1.21,3.91,3.91,0,0,1-.3-1.56,5,5,0,0,1,.3-1.8,10.34,10.34,0,0,1,.77-1.52l3.34-5.44h1.49ZM281,96.23a2.94,2.94,0,0,0,.2,1.09,2.36,2.36,0,0,0,.57.85,2.44,2.44,0,0,0,.87.55,3.14,3.14,0,0,0,1.12.19,3.1,3.1,0,0,0,1.12-.19,2.57,2.57,0,0,0,.88-.55,2.65,2.65,0,0,0,.57-.85,2.94,2.94,0,0,0,.2-1.09,2.88,2.88,0,0,0-.2-1.08,2.5,2.5,0,0,0-.57-.84,2.57,2.57,0,0,0-.88-.55,2.9,2.9,0,0,0-1.12-.2,2.93,2.93,0,0,0-1.12.2,2.44,2.44,0,0,0-.87.55,2.24,2.24,0,0,0-.57.84A2.88,2.88,0,0,0,281,96.23Z"/><path class="cls-1" d="M296.75,94.54l0,0a2.14,2.14,0,0,1-.79.32,4.52,4.52,0,0,1-.92.1,3.89,3.89,0,0,1-1.5-.29,3.8,3.8,0,0,1-1.2-.79,3.58,3.58,0,0,1-.79-1.21,3.88,3.88,0,0,1-.29-1.54,3.94,3.94,0,0,1,.3-1.56,3.3,3.3,0,0,1,.84-1.21,3.66,3.66,0,0,1,1.27-.78,4.77,4.77,0,0,1,3.22,0,3.7,3.7,0,0,1,1.28.78,3.56,3.56,0,0,1,.84,1.21,3.94,3.94,0,0,1,.3,1.56,4.71,4.71,0,0,1-.31,1.8,10.27,10.27,0,0,1-.76,1.52l-3.34,5.45h-1.49ZM298,91.09a2.94,2.94,0,0,0-.2-1.09,2.71,2.71,0,0,0-.57-.84,2.92,2.92,0,0,0-.88-.55,3.24,3.24,0,0,0-2.24,0,2.75,2.75,0,0,0-.87.55,2.41,2.41,0,0,0-.57.84,2.75,2.75,0,0,0-.2,1.09,2.67,2.67,0,0,0,.2,1.08,2.36,2.36,0,0,0,.57.85,2.44,2.44,0,0,0,.87.55,3.24,3.24,0,0,0,2.24,0,2.57,2.57,0,0,0,.88-.55,2.65,2.65,0,0,0,.57-.85A2.85,2.85,0,0,0,298,91.09Z"/><path class="cls-1" d="M305.43,92.79h.65a4,4,0,0,0,1-.13,2.34,2.34,0,0,0,.86-.39,2,2,0,0,0,.59-.71,2.39,2.39,0,0,0,.22-1,2,2,0,0,0-.61-1.55,2.38,2.38,0,0,0-1.68-.55,2.58,2.58,0,0,0-2.37,1.37l-1.1-.56a3.65,3.65,0,0,1,1.43-1.48,4,4,0,0,1,2-.48,4.43,4.43,0,0,1,1.38.21,3.32,3.32,0,0,1,1.14.62,2.89,2.89,0,0,1,.78,1,3.18,3.18,0,0,1,.29,1.38,2.81,2.81,0,0,1-.17,1,3,3,0,0,1-.45.82,3.17,3.17,0,0,1-.68.64,2.89,2.89,0,0,1-.8.41l.05,0a2.7,2.7,0,0,1,1,.39,3,3,0,0,1,.76.71,3.36,3.36,0,0,1,.49.94,3.68,3.68,0,0,1,.17,1.11,3.5,3.5,0,0,1-.31,1.52,3.29,3.29,0,0,1-.86,1.12,3.84,3.84,0,0,1-1.26.69,4.79,4.79,0,0,1-1.52.24,4.57,4.57,0,0,1-2.38-.6,3.63,3.63,0,0,1-1.53-1.91l1.33-.4a2.57,2.57,0,0,0,.94,1.32,3,3,0,0,0,1.74.43,3,3,0,0,0,1-.17,2.79,2.79,0,0,0,.83-.5,2.29,2.29,0,0,0,.56-.78,2.51,2.51,0,0,0,.2-1,2.48,2.48,0,0,0-.26-1.18,2.29,2.29,0,0,0-.7-.78,3,3,0,0,0-1-.43,5.08,5.08,0,0,0-1.18-.13h-.54Z"/><path class="cls-1" d="M168.76,62.6h-1.29L155.69,30.69,145.39,62.6H144l-9.33-30.14q-1.26-4.11-1.82-5.46a4.47,4.47,0,0,0-1.45-2,5.68,5.68,0,0,0-3-.73V23H143v1.31a7,7,0,0,0-3.37.76,2,2,0,0,0-.74,1.64,24.34,24.34,0,0,0,1.2,4.82L147,54,157.06,23h1.59L170,54l5.91-20.55A26.71,26.71,0,0,0,177.09,28q0-3.76-4-3.77V23h10.56v1.31A4.47,4.47,0,0,0,180.14,26q-1.14,1.56-2.88,7.46Z"/><path class="cls-2" d="M48.08,21.79a.68.68,0,1,1-.68-.68A.68.68,0,0,1,48.08,21.79Zm2.59-.68a.68.68,0,1,0,.68.68A.68.68,0,0,0,50.67,21.11Zm3.27,0a.68.68,0,1,0,0,1.36.68.68,0,1,0,0-1.36Zm3.26,0a.68.68,0,1,0,.69.68A.69.69,0,0,0,57.2,21.11ZM50.14,8H52V6.15A2.17,2.17,0,0,0,50.14,8Zm2.16,2.45a2.17,2.17,0,0,0,2.16-1.91H50.14A2.17,2.17,0,0,0,52.3,10.49Zm.27-4.34V8h1.89A2.17,2.17,0,0,0,52.57,6.15ZM67,13.38a.68.68,0,0,1-.72.64.69.69,0,0,1-.6-.43c-.2,1.76-1.16,4.12-4,6.81a19.71,19.71,0,0,0,.75,3.37.69.69,0,0,1-.68.68H42.88a.69.69,0,0,1-.69-.68,19.71,19.71,0,0,0,.75-3.37c-2.85-2.7-3.81-5.06-4-6.82a.68.68,0,0,1-1.32-.2.68.68,0,0,1,.64-.72.71.71,0,0,1,.64.36q0-.31,0-.6c0-.25,0-.48.09-.71a.71.71,0,0,1-.7.25.68.68,0,0,1,.31-1.33.66.66,0,0,1,.51.52,6.6,6.6,0,0,1,.48-1.22.68.68,0,0,1-.74,0,.68.68,0,0,1,.7-1.17.7.7,0,0,1,.33.66,4.63,4.63,0,0,1,.83-1A.66.66,0,0,1,40,8.17a.68.68,0,1,1,1.15,0,4.37,4.37,0,0,1,1.19-.46.68.68,0,0,1-.49-.56A.68.68,0,1,1,43.22,7a.67.67,0,0,1-.29.66,5.68,5.68,0,0,1,1.3,0,.68.68,0,1,1,.53.09A11.71,11.71,0,0,1,46,8.15a.68.68,0,0,1-.13-.71.68.68,0,1,1,.68.93c.42.18.82.37,1.22.57a.65.65,0,0,1-.05-.71.68.68,0,1,1,1.2.64.7.7,0,0,1-.62.36l1.1.6A8.21,8.21,0,0,0,52.3,11.1a8.21,8.21,0,0,0,2.86-1.27l1.1-.6a.73.73,0,0,1-.63-.36.68.68,0,0,1,1.21-.64.69.69,0,0,1-.06.72c.4-.2.81-.4,1.23-.58A.66.66,0,0,1,57.42,8a.68.68,0,1,1,1.26-.51.7.7,0,0,1-.13.72,9.59,9.59,0,0,1,1.29-.39.67.67,0,0,1-.52-.53A.68.68,0,1,1,60.66,7a.7.7,0,0,1-.29.7,5.66,5.66,0,0,1,1.3,0,.68.68,0,0,1,.47-1.24.68.68,0,0,1,.1,1.33,4.19,4.19,0,0,1,1.18.46.69.69,0,0,1,0-.72.68.68,0,1,1,.49,1,4.51,4.51,0,0,1,.83.95.66.66,0,0,1,.33-.65.68.68,0,0,1,.7,1.17.7.7,0,0,1-.74,0,6,6,0,0,1,.48,1.2.67.67,0,0,1,.51-.51.68.68,0,0,1,.81.51.67.67,0,0,1-.51.82.69.69,0,0,1-.69-.24c0,.22.07.46.09.7s0,.38,0,.59a.68.68,0,0,1,1.27.37Zm-6.37,9.5-.06-.41h-.09a.68.68,0,0,1-.09-1.35l-.05-.42H44.27l-.05.42a.68.68,0,0,1-.09,1.35H44l0,.41H60.62ZM59.24,19c3.53-2.68,4.32-4.93,4.35-6.36a3.09,3.09,0,0,0-1-2.49,2.91,2.91,0,0,0-2.35-.37c-1.24.23-3.59,1.2-6,5l.57-.2a2.86,2.86,0,0,1,0,2.59l-1.51-.53a1.24,1.24,0,0,1-.28.28h0s1.21,2.36,2.91,2.36c1.29,0,1.25-.67,1.93-.8a.67.67,0,0,1-.43-.63.68.68,0,0,1,.29-.56,1,1,0,0,0-.7-.5c-.35,0-.6.39-.68,1a.06.06,0,0,1,0,.06.08.08,0,0,1-.08,0c-.47-1-.35-1.54-.16-1.84a1,1,0,0,1,.89-.46,1.4,1.4,0,0,1,.57.13,2.11,2.11,0,0,1,.55-2.85.07.07,0,0,1,.09,0,2.11,2.11,0,0,1,.56,2.85,1.36,1.36,0,0,1,.57-.13,1,1,0,0,1,.88.46c.19.3.32.86-.16,1.84A.06.06,0,0,1,60,18s0,0-.06-.06c-.08-.66-.32-1-.67-1a.93.93,0,0,0-.7.5.71.71,0,0,1,.29.56.67.67,0,0,1-.45.64A2.49,2.49,0,0,1,59.24,19ZM52.3,16.82a.89.89,0,1,0-.88-.88A.89.89,0,0,0,52.3,16.82Zm-2.86-.88a2.83,2.83,0,0,1,.31-1.3l.57.2c-2.38-3.82-4.73-4.79-6-5a2.92,2.92,0,0,0-2.35.37,3.09,3.09,0,0,0-1,2.49c0,1.43.83,3.68,4.35,6.36a2.49,2.49,0,0,1,.85-.49.67.67,0,0,1-.45-.64.71.71,0,0,1,.29-.56.93.93,0,0,0-.7-.5c-.34,0-.59.39-.67,1a.06.06,0,0,1-.06.06.06.06,0,0,1-.07,0c-.47-1-.35-1.54-.16-1.84a1,1,0,0,1,.89-.46,1.35,1.35,0,0,1,.56.13,2.12,2.12,0,0,1,.56-2.85.07.07,0,0,1,.09,0,2.12,2.12,0,0,1,.56,2.85,1.35,1.35,0,0,1,.56-.13,1,1,0,0,1,.89.46c.19.3.31.86-.16,1.84,0,0-.05,0-.07,0a.06.06,0,0,1-.06-.06c-.08-.66-.33-1-.68-1a.94.94,0,0,0-.69.5.71.71,0,0,1,.29.56.68.68,0,0,1-.44.63c.68.13.64.8,1.93.8,1.71,0,2.92-2.36,2.92-2.36h0a1.24,1.24,0,0,1-.28-.28l-1.51.53A2.82,2.82,0,0,1,49.44,15.94Zm15.45-3.47a4.82,4.82,0,0,0-1.52-3.35C61,7.46,58,9.17,55.57,10.55a8.25,8.25,0,0,1-3.27,1.37A8.22,8.22,0,0,1,49,10.55c-2.44-1.38-5.48-3.09-7.81-1.43a4.82,4.82,0,0,0-1.52,3.35c-.14,2.32,1.16,4.85,3.78,7.32a3.49,3.49,0,0,0,1.12-.3c-3.56-2.79-4.38-5.22-4.42-6.79a3.93,3.93,0,0,1,1.29-3.15,3.75,3.75,0,0,1,3-.54c1.44.27,4.22,1.42,6.88,6l.16-.13L51,13.38a3,3,0,0,1,1.29-.3,2.88,2.88,0,0,1,1.29.3l-.53,1.51.16.13c2.66-4.59,5.44-5.74,6.88-6a3.75,3.75,0,0,1,3,.54,3.93,3.93,0,0,1,1.29,3.15c0,1.57-.85,4-4.42,6.79a3.48,3.48,0,0,0,1.13.3C63.73,17.32,65,14.79,64.89,12.47ZM49.75,4.15a2.76,2.76,0,0,1-.31-1.29,2.76,2.76,0,0,1,.31-1.29l1.51.53a1.24,1.24,0,0,1,.28-.28L51,.31A2.82,2.82,0,0,1,52.3,0a2.76,2.76,0,0,1,1.29.31l-.53,1.51a1.24,1.24,0,0,1,.28.28l1.51-.53a2.76,2.76,0,0,1,.31,1.29,2.76,2.76,0,0,1-.31,1.29l-1.51-.53a1.24,1.24,0,0,1-.28.28l.53,1.51a2.76,2.76,0,0,1-1.29.31A2.82,2.82,0,0,1,51,5.41l.53-1.51a1.24,1.24,0,0,1-.28-.28Zm1.67-1.29A.89.89,0,1,0,52.3,2,.88.88,0,0,0,51.42,2.86ZM81.86,37.57l-.57,1c3.71.87,6.63,3.61,6.63,7.4C87.92,53.41,82.74,55,78,55a.81.81,0,0,1-.81-.81.82.82,0,0,1,.81-.82c3.89,0,7.63-2,7.63-7.29,0-3.63-3.22-5.37-5.38-5.72a156.74,156.74,0,0,0-8.11,18.46,74,74,0,0,0,5.61,18.58c3.13-1.72,6.22-2.92,9-2.92,5.19,0,10.45,3.8,9.67,8.85A7.61,7.61,0,0,1,88.67,90c-5.75-.14-10.07-3.77-13.34-9C71,83.74,66.65,87,63.1,89.07c-3,1.78-6.08,3.54-9.16,5.09,1,.47,2.06.91,3.08,1.32,4.46-2,8.54-3.68,11.15-3.68s5.16,1,5.43,3.52c.31,2.82-2.16,4.31-5.91,4.24a31.39,31.39,0,0,1-10.45-2.44l-3,1.38c4.65,2.06,9.15,3.79,12.36,3.79a.82.82,0,0,1,.82.81.82.82,0,0,1-.82.82c-3.5,0-8.95-2.15-14.3-4.54-5.35,2.39-10.8,4.54-14.3,4.54a.82.82,0,0,1-.82-.82.82.82,0,0,1,.82-.81c3.21,0,7.71-1.73,12.36-3.79l-3-1.38a31.5,31.5,0,0,1-10.46,2.44c-3.75.07-6.22-1.42-5.91-4.24.27-2.51,2.94-3.52,5.43-3.52s6.69,1.67,11.15,3.68q1.55-.62,3.09-1.32c-3.09-1.55-6.18-3.31-9.17-5.09-3.55-2.12-7.88-5.33-12.23-8-3.26,5.19-7.59,8.82-13.33,9a7.62,7.62,0,0,1-7.77-6.68c-.78-5,4.49-8.85,9.67-8.85,2.76,0,5.84,1.2,9,2.92a74,74,0,0,0,5.61-18.58,156.74,156.74,0,0,0-8.11-18.46c-2.16.35-5.38,2.09-5.38,5.72,0,5.32,3.74,7.29,7.63,7.29a.82.82,0,0,1,.82.82.82.82,0,0,1-.82.81c-4.7,0-9.88-1.61-9.88-9.05,0-3.79,2.92-6.53,6.63-7.4l-.57-1C9.26,42,0,37.41,0,31.19,0,24.65,5.92,23,8.92,23c6.08,0,11.61,4.9,16.47,11.9A58.57,58.57,0,0,0,37.56,28c-.62-.42-1.24-.81-1.86-1.16-2.2,1.44-4.93,2.86-7.65,2.86-3.74,0-5.09-1.93-5.09-2.92s.53-3.22,5.64-3.22a17.34,17.34,0,0,1,7.07,1.68c.67-.42,1.37-.88,2.13-1.39a.62.62,0,1,1,.71,1L37.05,26c.6.32,1.23.68,1.87,1.08.64-.47,1.27-1,1.92-1.47a.7.7,0,0,1,.43-.15.69.69,0,0,1,.68.69.61.61,0,0,1-.23.5c-.52.44-1,.85-1.56,1.26A51.69,51.69,0,0,1,52.3,40.55,52.06,52.06,0,0,1,64.44,27.86c-.52-.41-1-.82-1.56-1.26a.61.61,0,0,1-.23-.5.69.69,0,0,1,.68-.69.7.7,0,0,1,.43.15q1,.77,1.92,1.47c.64-.4,1.27-.76,1.87-1.08L66.09,24.9a.62.62,0,0,1-.26-.51.62.62,0,0,1,.62-.62.63.63,0,0,1,.35.11c.76.51,1.46,1,2.13,1.39A17.34,17.34,0,0,1,76,23.59c5.11,0,5.64,2.2,5.64,3.22s-1.35,2.92-5.09,2.92c-2.71,0-5.44-1.42-7.64-2.86-.63.35-1.25.74-1.87,1.16a58.57,58.57,0,0,0,12.17,6.82C84.07,27.85,89.6,23,95.68,23c3,0,8.92,1.7,8.92,8.24C104.6,37.41,95.35,42,81.86,37.57ZM70.36,26.14c2.45,1.42,4.35,2.13,6.18,2.13,1.44,0,3.57-.43,3.57-1.49s-1.49-1.9-4.11-1.9A14,14,0,0,0,70.36,26.14Zm-36.12,0a14,14,0,0,0-5.64-1.26c-2.62,0-4.11.76-4.11,1.9s2.13,1.49,3.57,1.49C29.89,28.27,31.79,27.56,34.24,26.14Zm48.51,10C94.9,39.68,102,35,102,31.19a6,6,0,0,0-6.33-6.33C91.25,24.86,86.81,29.48,82.75,36.09Zm-60.9,0c-4.06-6.61-8.5-11.23-12.93-11.23a6,6,0,0,0-6.33,6.33C2.59,35,9.71,39.68,21.85,36.09Zm4.47.13c.48.73.95,1.47,1.41,2.24,4.79.88,11,5.15,17.07,14.51,1.91-3.67,3.8-6.88,5.64-9.69C47,37.4,43,32.26,38.77,28.93A60.21,60.21,0,0,1,26.32,36.22Zm21,21A93.78,93.78,0,0,1,52.3,67.83a95.56,95.56,0,0,1,5-10.59,111.49,111.49,0,0,0-5-10.64A114,114,0,0,0,47.35,57.24Zm-10.1.67c.84,2.05,1.64,4.07,2.38,6,1-2.37,2-4.59,3-6.69a53.61,53.61,0,0,0-4.07-7.65C38.27,52,37.83,54.86,37.25,57.91Zm-3.6-8.24q.26-2.84.36-5.58a15.16,15.16,0,0,0-4.73-3C30.83,43.84,32.28,46.73,33.65,49.67ZM25.92,79.15c-4.64-2.45-9.06-3.78-12.3-1.92-6.15,3.52-2.52,11.1,2.25,10.62C19.81,87.45,23.18,84.13,25.92,79.15ZM45.51,96.26c-4-1.83-7.3-3.26-8.8-3.24s-3.31,1-3.27,2.59a2.79,2.79,0,0,0,3,2.52A28.29,28.29,0,0,0,45.51,96.26Zm13.58,0a28.29,28.29,0,0,0,9.08,1.87,2.78,2.78,0,0,0,3-2.52c0-1.62-1.64-2.56-3.26-2.59S63.07,94.43,59.09,96.26ZM52.3,95c-1,.47-2,.92-2.93,1.33l2.93,1.34,2.93-1.34C54.26,95.88,53.28,95.43,52.3,95ZM78.69,79.15c2.73,5,6.1,8.3,10,8.7,4.77.48,8.4-7.1,2.25-10.62C87.74,75.37,83.32,76.7,78.69,79.15ZM69.4,66.72c-2.11,6.31-3.54,11.41-4,13.5-.11.44-.37.82-.82.82a.86.86,0,0,1-.82-.82,84.8,84.8,0,0,0-4.2-16.88,152.12,152.12,0,0,0-6.42,27.23.85.85,0,0,1-.81.82.87.87,0,0,1-.83-.82,152.12,152.12,0,0,0-6.42-27.23,85.5,85.5,0,0,0-4.2,16.88A.86.86,0,0,1,40,81c-.45,0-.71-.38-.81-.82-.49-2.09-1.92-7.19-4-13.5a59,59,0,0,1-5,12.75c4.39,2.83,8.64,6.22,11.94,8.27A111.78,111.78,0,0,0,52.3,93.39a111.78,111.78,0,0,0,10.15-5.65c3.3-2,7.55-5.44,11.94-8.27A59,59,0,0,1,69.4,66.72Zm-7.46-9.48c1,2.1,2,4.32,3,6.69.75-2,1.54-4,2.38-6-.58-3-1-5.9-1.35-8.32A53.58,53.58,0,0,0,61.94,57.24Zm9-7.57c1.37-2.94,2.83-5.83,4.37-8.56a15.16,15.16,0,0,0-4.73,3Q70.69,46.84,71,49.67Zm7.33-13.45a60.21,60.21,0,0,1-12.45-7.29c-4.26,3.33-8.21,8.47-11.67,14.35,1.84,2.81,3.73,6,5.64,9.69,6-9.36,12.28-13.63,17.07-14.51C77.33,37.69,77.8,37,78.28,36.22Z"/></g></g></svg>